<svg width="22" height="22" viewBox="0 0 22 22" fill="none" xmlns="http://www.w3.org/2000/svg">
<path d="M22 18.7C22 20.5225 20.5225 22 18.7 22H3.3C1.47752 22 0 20.5225 0 18.7V3.3C0 1.47752 1.47752 0 3.3 0H18.7C20.5225 0 22 1.47752 22 3.3V18.7Z" fill="#3B97D3"/>
<path d="M19.7999 3.29999C19.7999 3.59175 19.684 3.87156 19.4777 4.07785C19.2713 4.28414 18.9915 4.40002 18.6997 4.39999C18.408 4.39996 18.1282 4.28403 17.9219 4.07769C17.7156 3.87136 17.5997 3.59153 17.5997 3.29977C17.5998 3.008 17.7157 2.72819 17.922 2.5219C18.1284 2.31561 18.4082 2.19974 18.7 2.19977C18.9917 2.1998 19.2715 2.31573 19.4778 2.52206C19.6841 2.72839 19.8 3.00822 19.7999 3.29999Z" fill="white" stroke="#2980BA" stroke-width="2" stroke-miterlimit="10"/>
<path opacity="0.5" d="M10.78 19.58C15.2756 19.58 18.92 15.9356 18.92 11.44C18.92 6.94439 15.2756 3.29999 10.78 3.29999C6.28442 3.29999 2.64001 6.94439 2.64001 11.44C2.64001 15.9356 6.28442 19.58 10.78 19.58Z" fill="#324559"/>
<path d="M11 19.14C15.4956 19.14 19.14 15.4956 19.14 11C19.14 6.50439 15.4956 2.85999 11 2.85999C6.50439 2.85999 2.85999 6.50439 2.85999 11C2.85999 15.4956 6.50439 19.14 11 19.14Z" fill="white"/>
<path d="M11 18.48C15.1311 18.48 18.48 15.1311 18.48 11C18.48 6.86893 15.1311 3.52002 11 3.52002C6.86893 3.52002 3.52002 6.86893 3.52002 11C3.52002 15.1311 6.86893 18.48 11 18.48Z" fill="#202D3C"/>
<path d="M11 15.84C13.6731 15.84 15.84 13.673 15.84 11C15.84 8.32692 13.6731 6.15997 11 6.15997C8.32698 6.15997 6.16003 8.32692 6.16003 11C6.16003 13.673 8.32698 15.84 11 15.84Z" fill="#35495E"/>
<path d="M11 13.86C12.5795 13.86 13.86 12.5795 13.86 11C13.86 9.42048 12.5795 8.14001 11 8.14001C9.42048 8.14001 8.14001 9.42048 8.14001 11C8.14001 12.5795 9.42048 13.86 11 13.86Z" fill="#202D3C"/>
<path d="M11 11.88C11.486 11.88 11.88 11.486 11.88 11C11.88 10.514 11.486 10.12 11 10.12C10.514 10.12 10.12 10.514 10.12 11C10.12 11.486 10.514 11.88 11 11.88Z" fill="#C03A2B"/>
<path d="M11 12.98C10.74 12.98 10.4825 12.9288 10.2423 12.8292C10.002 12.7297 9.78373 12.5839 9.59987 12.4C9.41601 12.2161 9.27017 11.9978 9.17067 11.7575C9.07118 11.5173 9.01999 11.2598 9.02002 10.9998" stroke="#35495E" stroke-width="2" stroke-miterlimit="10"/>
<path opacity="0.15" d="M5.19751 5.25203C8.38707 2.06247 13.5584 2.06247 16.7479 5.25203C19.9375 8.44159 19.9375 13.6129 16.7479 16.8025" fill="black"/>
</svg>
