<svg width="32" height="32" viewBox="0 0 32 32" fill="none" xmlns="http://www.w3.org/2000/svg">
<circle cx="16" cy="16" r="16" fill="#1AA053"/>
<g clip-path="url(#clip0_10:546)">
<path d="M23.7561 15.2437C23.3985 14.8813 23.0267 14.5048 22.6455 14.1243L22.0579 13.5407C21.9779 13.4621 21.8966 13.3827 21.8166 13.3041C21.8199 13.2785 21.8226 13.2523 21.8226 13.2261V11.3706C21.8226 11.0714 21.5799 10.8287 21.2807 10.8287C20.9816 10.8287 20.7389 11.0714 20.7389 11.3706V12.2297L18.4813 9.98763C18.2171 9.72746 17.9529 9.45921 17.7041 9.17819C17.2685 8.68405 16.689 8.40505 16.0725 8.39295C16.0577 8.3916 16.0422 8.3916 16.0274 8.3916C15.3881 8.3916 14.7729 8.66724 14.2902 9.17079C12.9389 10.5806 11.5304 11.977 10.1684 13.3269C9.57405 13.9159 8.95957 14.525 8.35854 15.1267C8.27047 15.2147 8.17029 15.3149 8.10239 15.4137C7.93902 15.6511 7.97465 15.9334 8.19248 16.1324C8.54543 16.4551 8.91856 16.1546 9.0631 16.0107C10.4292 14.6467 11.7946 13.2812 13.1601 11.9165L15.1655 9.91167C15.7666 9.3113 16.2338 9.31063 16.8322 9.90898L18.7939 11.8701C20.1506 13.2268 21.5073 14.5828 22.8647 15.9388C22.9507 16.0249 23.0395 16.1136 23.1275 16.1741C23.3588 16.3341 23.656 16.2992 23.8489 16.0887C24.1589 15.7499 23.9235 15.4137 23.7561 15.2437Z" fill="white" fill-opacity="0.6"/>
<path d="M21.561 16.0839C19.889 14.3945 18.2405 12.7487 16.4354 10.9489C16.0078 10.5227 15.5594 10.953 15.5366 10.9758C13.4941 13.0115 11.9041 14.6035 10.421 16.0974C10.3753 16.1431 10.3404 16.2171 10.3377 16.2453C10.3363 16.451 10.335 16.6601 10.333 16.8692C10.3296 17.3243 10.3256 17.7855 10.3249 18.2487C10.3242 18.7698 10.3276 19.2935 10.339 19.8145C10.3417 20.665 10.3458 21.5134 10.3498 22.3605H10.3545C10.3552 22.3887 10.3558 22.4176 10.3572 22.4459C10.3814 23.0994 10.9347 23.5969 11.6453 23.6043C12.3062 23.611 12.9798 23.609 13.6313 23.6069H13.7503C13.9062 23.6063 14.0326 23.4799 14.0326 23.3239V20.5762C14.0326 19.4871 14.916 18.6037 16.0051 18.6037C17.0943 18.6037 17.9777 19.4871 17.9777 20.5762V23.2775C17.9837 23.3777 18.0395 23.6083 18.4214 23.609C19.0486 23.6096 19.6416 23.6103 20.2433 23.6076C21.044 23.6043 21.5704 23.1505 21.6538 22.4116H21.6659C21.6686 21.5443 21.6706 20.6791 21.6726 19.8152C21.68 19.2881 21.682 18.7644 21.68 18.2494C21.678 17.5906 21.6713 16.9451 21.6625 16.3233C21.6612 16.252 21.6121 16.1357 21.561 16.0839Z" fill="white"/>
</g>
<defs>
<clipPath id="clip0_10:546">
<rect width="16" height="15.2181" fill="white" transform="translate(8 8.3916)"/>
</clipPath>
</defs>
</svg>
