<svg width="28" height="28" viewBox="0 0 28 28" fill="none" xmlns="http://www.w3.org/2000/svg">
<circle cx="14" cy="14" r="14" fill="#375CE8"/>
<g clip-path="url(#clip0_10:527)">
<path d="M12.4383 15.391C12.4383 14.9629 12.429 14.5348 12.4383 14.1073C12.458 13.3557 13.0821 12.7075 13.8146 12.6325C14.2001 12.5893 14.5881 12.6902 14.9038 12.9156C15.2196 13.141 15.4409 13.4752 15.5253 13.8538C15.5455 13.947 15.556 14.0421 15.5565 14.1374C15.5565 14.9848 15.5685 15.8317 15.5538 16.6786C15.539 17.5255 14.7999 18.1977 13.9542 18.1659C13.5514 18.1584 13.1674 17.994 12.8839 17.7078C12.6004 17.4215 12.4398 17.036 12.4361 16.6331C12.4263 16.2187 12.4361 15.8043 12.4361 15.3899L12.4383 15.391Z" fill="white"/>
<path d="M13.8517 7C16.0874 7.03613 17.8857 7.76367 19.3851 9.21819C19.5816 9.40815 19.5959 9.65613 19.4251 9.83624C19.2543 10.0163 18.9981 10.012 18.8048 9.82255C18.2737 9.29657 17.6597 8.86158 16.9874 8.535C15.8868 7.99753 14.6606 7.77041 13.4406 7.87808C11.8121 8.01494 10.4107 8.65251 9.2363 9.79081C9.09944 9.92328 8.94945 10.0038 8.75839 9.94901C8.44636 9.85978 8.35713 9.47439 8.60128 9.23735C8.81612 9.02743 9.0414 8.82846 9.27626 8.6412C10.3057 7.82218 11.5332 7.28963 12.8346 7.09744C13.2172 7.03723 13.6092 7.0219 13.8517 7Z" fill="white" fill-opacity="0.6"/>
<path d="M13.5826 20.1822C13.5826 20.0459 13.5799 19.9085 13.5826 19.7727C13.5826 19.6994 13.558 19.6731 13.4835 19.6589C12.2184 19.4136 11.3639 18.6822 10.9544 17.462C10.8526 17.1576 10.8345 16.8215 10.8049 16.4974C10.7847 16.2785 10.9757 16.0989 11.1931 16.0847C11.2967 16.0772 11.3991 16.11 11.4792 16.1761C11.5592 16.2423 11.6107 16.3368 11.6228 16.44C11.6578 16.7602 11.6847 17.0788 11.8062 17.3848C11.9846 17.8211 12.2883 18.1948 12.6789 18.4588C13.0695 18.7227 13.5295 18.865 14.0008 18.8678C14.9534 18.8678 15.843 18.2656 16.1851 17.3898C16.2881 17.137 16.3449 16.8677 16.3526 16.5949C16.3526 16.4307 16.3816 16.2741 16.5278 16.1706C16.5887 16.1214 16.6629 16.0915 16.7409 16.0846C16.8189 16.0778 16.8972 16.0944 16.9657 16.1323C17.0364 16.1652 17.0959 16.2181 17.1368 16.2845C17.1776 16.3508 17.1981 16.4277 17.1957 16.5057C17.2016 17.2876 16.9141 18.0434 16.3898 18.6237C15.9072 19.178 15.2444 19.5443 14.5182 19.6578C14.4366 19.6714 14.4125 19.7015 14.4131 19.7798C14.4163 20.0442 14.418 20.3087 14.4131 20.5725C14.4087 20.8265 14.2324 21.0022 13.9954 21.0001C13.7583 20.9979 13.5925 20.8254 13.5848 20.5785C13.5804 20.4466 13.5848 20.3147 13.5848 20.1822H13.5826Z" fill="white"/>
<path d="M13.8622 8.88757C15.568 8.91987 16.9278 9.45362 18.0577 10.5545C18.182 10.6755 18.2395 10.8156 18.1935 10.9853C18.175 11.0611 18.135 11.1299 18.0782 11.1834C18.0215 11.2369 17.9505 11.2729 17.8738 11.287C17.7178 11.3231 17.5886 11.2623 17.4769 11.1567C17.1658 10.8562 16.8193 10.5946 16.445 10.3777C15.8727 10.0494 15.2393 9.84184 14.5837 9.76784C13.2064 9.61675 11.9747 9.97696 10.8864 10.8315C10.761 10.9295 10.6482 11.0428 10.53 11.1501C10.3181 11.3417 10.0702 11.3455 9.90045 11.16C9.73075 10.9744 9.75593 10.7357 9.9552 10.543C10.7744 9.73028 11.8228 9.18791 12.9595 8.98885C13.2984 8.92644 13.6498 8.91057 13.8622 8.88757Z" fill="white" fill-opacity="0.8"/>
<path d="M13.8934 10.8825C15.02 10.8962 15.9025 11.2553 16.6432 11.962C16.8304 12.1405 16.8474 12.3967 16.6875 12.5708C16.5277 12.7449 16.2693 12.7553 16.0788 12.5763C15.6518 12.1744 15.1624 11.8887 14.5826 11.783C13.6427 11.6111 12.798 11.8219 12.0644 12.4482C12.002 12.5029 11.9435 12.5576 11.8794 12.6124C11.7978 12.6795 11.6938 12.7132 11.5883 12.7066C11.4828 12.7 11.3838 12.6536 11.3112 12.5768C11.2378 12.5002 11.1969 12.3982 11.1969 12.2921C11.1969 12.1861 11.2378 12.0841 11.3112 12.0075C11.8617 11.4422 12.5796 11.0691 13.3586 10.9433C13.5688 10.9088 13.7823 10.8946 13.8934 10.8825Z" fill="white"/>
</g>
<defs>
<clipPath id="clip0_10:527">
<rect width="11.0827" height="14" fill="white" transform="translate(8.45862 7)"/>
</clipPath>
</defs>
</svg>
