<svg width="40" height="40" viewBox="0 0 40 40" fill="none" xmlns="http://www.w3.org/2000/svg">
<circle cx="20" cy="20" r="19.5" fill="#F9F9F9" stroke="#EFEFEF"/>
<g clip-path="url(#clip0_48:4355)">
<path d="M26.6814 15.951C26.3311 16.0054 26.0024 16.0558 25.6742 16.1079C24.1583 16.349 22.6424 16.5911 21.1262 16.8319C19.8864 17.0289 18.6462 17.2259 17.4057 17.419C17.3009 17.4355 17.2587 17.4806 17.2664 17.5825C17.2693 17.6216 17.2667 17.6611 17.2667 17.7002C17.2667 19.8443 17.2655 21.9888 17.2679 24.1329C17.2682 24.5003 17.3009 24.8687 17.2873 25.2353C17.2643 25.8621 17.1377 26.4704 16.8826 27.0478C16.5176 27.8731 15.8674 28.4055 15.0765 28.7844C14.3392 29.1381 13.57 29.2673 12.7582 29.0804C11.6488 28.8251 10.8643 27.8693 10.8352 26.736C10.8098 25.7482 11.1913 24.9223 11.8244 24.1944C12.2606 23.6927 12.7708 23.2858 13.4283 23.1259C13.8019 23.0349 14.1901 22.9952 14.5742 22.9581C14.8403 22.9324 14.8167 22.9675 14.8167 22.7022C14.8173 19.8022 14.8164 16.9023 14.8176 14.0026C14.8179 13.4753 15.0367 13.0601 15.5216 12.8414C15.762 12.733 16.0395 12.6974 16.3043 12.6547C18.0862 12.3679 19.869 12.0882 21.6518 11.8064C23.3521 11.5376 25.0524 11.2682 26.7527 11.0002C27.1112 10.9437 27.4697 10.8869 27.8294 10.8407C28.4459 10.7614 29.0739 11.2717 29.1332 11.8953C29.147 12.0417 29.1538 12.1889 29.1538 12.3358C29.155 15.6232 29.1544 18.911 29.155 22.1984C29.155 22.6153 29.1797 23.0331 29.1591 23.4489C29.1231 24.167 28.9614 24.8572 28.5932 25.4846C28.156 26.2296 27.4844 26.691 26.7029 27.0072C26.023 27.2822 25.3243 27.3694 24.5984 27.1959C23.6428 26.9674 22.861 26.1062 22.7373 25.1375C22.6159 24.1859 22.9126 23.355 23.4675 22.603C23.8629 22.0674 24.3357 21.6154 24.9664 21.3587C25.4589 21.1581 25.9732 21.0636 26.5038 21.0716C26.6549 21.0739 26.6941 21.0248 26.6938 20.8781C26.689 19.2982 26.6908 17.7182 26.6905 16.1382C26.6899 16.0858 26.6852 16.0331 26.6814 15.951Z" fill="#375CE8"/>
</g>
<defs>
<clipPath id="clip0_48:4355">
<rect width="18.3333" height="18.3333" fill="white" transform="translate(10.8335 10.8333)"/>
</clipPath>
</defs>
</svg>
