<svg width="14" height="18" viewBox="0 0 14 18" fill="none" xmlns="http://www.w3.org/2000/svg">
<g clip-path="url(#clip0_48:4365)">
<path d="M-0.00022781 8.99691C-0.00022781 6.60989 -0.00322282 4.22587 0.0027672 1.83884C0.0027672 1.57528 0.0297223 1.30274 0.0926175 1.04517C0.302268 0.194585 1.01508 -0.191771 1.84769 0.0867648C2.0813 0.16763 2.31192 0.278445 2.51258 0.419211C5.83704 2.69542 9.15252 4.9836 12.474 7.2628C12.9741 7.60723 13.3905 8.01755 13.5162 8.63152C13.684 9.43419 13.3605 10.0751 12.7316 10.5423C11.9199 11.1443 11.0783 11.7014 10.2457 12.2764C7.67598 14.0465 5.10926 15.8195 2.53355 17.5776C2.28496 17.7483 1.99145 17.8861 1.70094 17.955C0.95518 18.1287 0.371153 17.7933 0.137543 17.0595C0.0506873 16.772 0.00875721 16.4575 0.00576221 16.155C-0.00322282 13.768 -0.00022781 11.3839 -0.00022781 8.99691Z" fill="#777777"/>
</g>
<defs>
<clipPath id="clip0_48:4365">
<rect width="13.5644" height="18" fill="white"/>
</clipPath>
</defs>
</svg>
