<svg width="28" height="28" viewBox="0 0 28 28" fill="none" xmlns="http://www.w3.org/2000/svg">
<circle cx="14" cy="14" r="14" fill="#FF6A17"/>
<g clip-path="url(#clip0_10:538)">
<path d="M14.0003 7.82353C14.8119 7.82166 15.6159 7.98082 16.3656 8.29182C17.1153 8.60281 17.7958 9.05945 18.3678 9.63529C18.9435 10.2073 19.4001 10.8879 19.7111 11.6376C20.0221 12.3872 20.1813 13.1911 20.1795 14.0027C20.1816 14.8142 20.0229 15.618 19.7123 16.3676C19.4018 17.1173 18.9458 17.7979 18.3705 18.3702C17.7985 18.946 17.118 19.4027 16.3683 19.7137C15.6186 20.0247 14.8147 20.1838 14.0031 20.182C13.1914 20.1839 12.3875 20.0248 11.6378 19.7138C10.8881 19.4028 10.2075 18.9461 9.6356 18.3702C9.06026 17.798 8.60413 17.1174 8.29361 16.3677C7.98309 15.618 7.82435 14.8142 7.82658 14.0027C7.82435 13.1913 7.98309 12.3875 8.29361 11.6378C8.60413 10.8881 9.06026 10.2075 9.6356 9.63529C10.2075 9.05941 10.8881 8.60273 11.6378 8.29173C12.3875 7.98074 13.1914 7.82159 14.0031 7.82353H14.0003ZM14.0031 7C12.1465 7 10.3661 7.7375 9.05331 9.05025C7.74055 10.363 7.00305 12.1435 7.00305 14C7.00305 15.8565 7.74055 17.637 9.05331 18.9497C10.3661 20.2625 12.1465 21 14.0031 21C15.8596 21 17.6401 20.2625 18.9528 18.9497C20.2656 17.637 21.0031 15.8565 21.0031 14C21.0029 12.1435 20.2654 10.3631 18.9527 9.05041C17.6399 7.73769 15.8595 7.00015 14.0031 7Z" fill="white"/>
<path d="M11.968 13.9996C11.968 13.1475 11.968 12.2976 11.968 11.4439C11.9674 11.3485 11.9783 11.2534 12.0004 11.1606C12.0756 10.8564 12.3298 10.7181 12.6273 10.8185C12.7111 10.8465 12.7905 10.8858 12.8634 10.9355C14.0511 11.7491 15.2368 12.5646 16.4205 13.3819C16.5995 13.5044 16.7472 13.6515 16.7928 13.8705C16.8531 14.1577 16.7379 14.3861 16.5133 14.553C16.2234 14.7676 15.922 14.9675 15.625 15.1723C14.7078 15.804 13.7898 16.435 12.8711 17.0653C12.781 17.1276 12.6804 17.1731 12.5741 17.1998C12.3078 17.2624 12.0992 17.1449 12.0157 16.8803C11.9835 16.7755 11.9672 16.6665 11.9674 16.5569C11.9663 15.7032 11.968 14.8516 11.968 13.9996Z" fill="white" fill-opacity="0.6"/>
</g>
<defs>
<clipPath id="clip0_10:538">
<rect width="14" height="14" fill="white" transform="translate(7 7)"/>
</clipPath>
</defs>
</svg>
