<svg width="32" height="32" viewBox="0 0 32 32" fill="none" xmlns="http://www.w3.org/2000/svg">
<circle cx="16" cy="16" r="16" fill="#1AA053"/>
<path d="M10.1667 18.6666V21.8333H13.3334V23.4166H8.58337V18.6666H10.1667ZM24.4167 18.6666V23.4166H19.6667V21.8333H22.8334V18.6666H24.4167ZM12.9375 11.5416C12.9375 12.4865 13.3129 13.3926 13.981 14.0607C14.6491 14.7288 15.5552 15.1041 16.5 15.1041C17.4449 15.1041 18.351 14.7288 19.0191 14.0607C19.6872 13.3926 20.0625 12.4865 20.0625 11.5416H21.6459C21.6461 12.4832 21.3879 13.4069 20.8994 14.2119C20.411 15.0169 19.7111 15.6725 18.8758 16.1072L18.875 21.0416H14.125V16.108C13.2895 15.6733 12.5893 15.0176 12.1008 14.2125C11.6122 13.4073 11.354 12.4835 11.3542 11.5416H12.9375ZM16.5 9.95831C17.025 9.95831 17.5284 10.1668 17.8995 10.538C18.2707 10.9092 18.4792 11.4126 18.4792 11.9375C18.4792 12.4624 18.2707 12.9658 17.8995 13.337C17.5284 13.7081 17.025 13.9166 16.5 13.9166C15.9751 13.9166 15.4717 13.7081 15.1006 13.337C14.7294 12.9658 14.5209 12.4624 14.5209 11.9375C14.5209 11.4126 14.7294 10.9092 15.1006 10.538C15.4717 10.1668 15.9751 9.95831 16.5 9.95831ZM13.3334 7.58331V9.16665L10.1667 9.16585V12.3333H8.58337V7.58331H13.3334ZM24.4167 7.58331V12.3333H22.8334V9.16665H19.6667V7.58331H24.4167Z" fill="white"/>
</svg>
