<svg width="32" height="32" viewBox="0 0 32 32" fill="none" xmlns="http://www.w3.org/2000/svg">
<circle cx="16" cy="16" r="16" fill="#FF9600"/>
<g clip-path="url(#clip0_10:500)">
<path d="M22.7194 8H21.2772C21.1827 8 21.1062 8.0765 21.1062 8.17097V8.78766C21.1062 8.88213 21.1827 8.95863 21.2772 8.95863H22.7194C22.8791 8.95863 23.0095 9.08902 23.0095 9.24868V10.6011C23.0095 10.6956 23.086 10.7721 23.1804 10.7721H23.7971C23.8916 10.7721 23.9681 10.6956 23.9681 10.6011V9.24868C23.9674 8.56014 23.408 8 22.7194 8Z" fill="white" fill-opacity="0.6"/>
<path d="M23.7971 21.228H23.1804C23.086 21.228 23.0095 21.3045 23.0095 21.399V22.7515C23.0095 22.9118 22.8791 23.0415 22.7194 23.0415H21.2772C21.1827 23.0415 21.1062 23.118 21.1062 23.2125V23.8292C21.1062 23.9236 21.1827 24.0001 21.2772 24.0001H22.7194C23.408 24.0001 23.9681 23.44 23.9681 22.7515V21.399C23.9674 21.3045 23.8909 21.228 23.7971 21.228Z" fill="white"/>
<path d="M8.20368 10.7721H8.82037C8.91484 10.7721 8.99134 10.6956 8.99134 10.6011V9.24868C8.99134 9.08902 9.12173 8.95863 9.28139 8.95863H10.9638C11.0583 8.95863 11.1348 8.88213 11.1348 8.78766V8.17097C11.1348 8.0765 11.0583 8 10.9638 8H9.28139C8.59286 8 8.03271 8.56014 8.03271 9.24868V10.6011C8.03271 10.6956 8.10922 10.7721 8.20368 10.7721Z" fill="white" fill-opacity="0.6"/>
<path d="M10.9632 23.0424H9.28139C9.12173 23.0424 8.99134 22.912 8.99134 22.7524V21.3999C8.99134 21.3054 8.91484 21.2289 8.82037 21.2289H8.20368C8.10922 21.2289 8.03271 21.3054 8.03271 21.3999V22.7524C8.03271 23.4409 8.59286 24.0011 9.28139 24.0011H10.9638C11.0583 24.0011 11.1348 23.9246 11.1348 23.8301V23.2134C11.1341 23.1189 11.0576 23.0424 10.9632 23.0424Z" fill="white"/>
<path d="M18.3673 16.9914H13.6327C13.7405 17.8369 14.6006 18.9738 16.0003 18.9738C17.4027 18.9732 18.2622 17.8369 18.3673 16.9914Z" fill="white" fill-opacity="0.6"/>
<path d="M19.88 12.126C18.8455 11.0896 17.4704 10.5181 16.0062 10.5175C16.0056 10.5175 16.0049 10.5175 16.0042 10.5175C12.984 10.5175 10.5225 12.9643 10.5172 15.9725C10.5146 17.4507 11.0847 18.8378 12.1231 19.8782C13.1549 20.9127 14.53 21.4828 15.9936 21.4828C15.9942 21.4828 15.9949 21.4828 15.9962 21.4828C17.4611 21.4828 18.8389 20.9134 19.8747 19.8802C20.9111 18.8458 21.4826 17.47 21.4833 16.0065C21.4833 14.5409 20.9145 13.1625 19.88 12.126ZM12.9015 14.4744C13.149 14.2309 13.5069 14.0905 13.8827 14.0899C14.2526 14.0872 14.5832 14.2149 14.8633 14.4711C15.0509 14.6427 15.0782 14.8968 14.9285 15.0751C14.7802 15.2521 14.532 15.268 14.3245 15.1137C13.9839 14.8602 13.7856 14.8596 13.4417 15.1117C13.3432 15.1842 13.2408 15.2195 13.1443 15.2195C13.0312 15.2195 12.9261 15.1702 12.8423 15.0731C12.6866 14.8928 12.7092 14.6633 12.9015 14.4744ZM12.817 17.2445C12.7797 17.0695 12.7578 16.8806 12.7485 16.6671C12.7432 16.5367 12.7498 16.3723 12.8529 16.2652C12.9361 16.1788 13.0598 16.1415 13.2674 16.1408C13.6885 16.1395 14.1089 16.1402 14.53 16.1402H15.9996H16.7739C17.4192 16.1402 18.0652 16.1402 18.7105 16.1408C18.8728 16.1408 19.0371 16.1555 19.1409 16.2606C19.2433 16.365 19.256 16.5267 19.2533 16.6857C19.2327 18.1452 18.0286 19.5263 16.569 19.7651C16.3848 19.7951 16.2011 19.8097 16.0209 19.8097C14.4921 19.8097 13.139 18.7633 12.817 17.2445ZM19.1535 15.0784C19.0697 15.1729 18.9653 15.2208 18.8542 15.2208C18.7617 15.2208 18.6652 15.1875 18.5721 15.121C18.2029 14.8569 18.0259 14.8562 17.6714 15.117C17.4651 15.268 17.211 15.2481 17.0666 15.0691C16.9249 14.8935 16.9496 14.6467 17.1252 14.4817C17.4033 14.2203 17.7346 14.0879 18.1104 14.0879C18.1151 14.0879 18.1191 14.0879 18.1237 14.0879C18.5122 14.0905 18.8462 14.2269 19.1169 14.4923C19.2946 14.6673 19.3092 14.9028 19.1535 15.0784Z" fill="white"/>
</g>
<defs>
<clipPath id="clip0_10:500">
<rect width="15.9348" height="16" fill="white" transform="translate(8.03271 8)"/>
</clipPath>
</defs>
</svg>
