<svg width="32" height="32" viewBox="0 0 32 32" fill="none" xmlns="http://www.w3.org/2000/svg">
<circle cx="16" cy="16" r="16" fill="#2980BA"/>
<path d="M11.5 12.175L9.9025 10.585L10.96 9.5275L12.55 11.125L11.5 12.175ZM16.75 7.75V10H15.25V7.75H16.75ZM22.0975 10.585L20.5 12.175L19.45 11.125L21.04 9.5275L22.0975 10.585ZM10.375 14.875V16.375H8.125V14.875H10.375ZM21.625 14.875H23.875V16.375H21.625V14.875ZM11.5 22H20.5C20.8978 22 21.2794 22.158 21.5607 22.4393C21.842 22.7206 22 23.1022 22 23.5H10C10 23.1022 10.158 22.7206 10.4393 22.4393C10.7206 22.158 11.1022 22 11.5 22ZM16 10.75C17.1935 10.75 18.3381 11.2241 19.182 12.068C20.0259 12.9119 20.5 14.0565 20.5 15.25V21.25H11.5V15.25C11.5 14.0565 11.9741 12.9119 12.818 12.068C13.6619 11.2241 14.8065 10.75 16 10.75Z" fill="white"/>
</svg>
 