<svg width="22" height="22" viewBox="0 0 22 22" fill="none" xmlns="http://www.w3.org/2000/svg">
<path d="M15.9502 11.0001C14.6374 11.0001 13.3783 10.4786 12.45 9.55028C11.5217 8.62197 11.0002 7.36292 11.0002 6.0501C11.0002 4.73728 11.5217 3.47822 12.45 2.54992C13.3783 1.62161 14.6374 1.1001 15.9502 1.1001C17.263 1.1001 18.5221 1.62161 19.4504 2.54992C20.3787 3.47822 20.9002 4.73728 20.9002 6.0501C20.9002 7.36292 20.3787 8.62197 19.4504 9.55028C18.5221 10.4786 17.263 11.0001 15.9502 11.0001ZM17.7146 3.1857C17.6113 3.08242 17.4712 3.0244 17.3252 3.0244C17.1791 3.0244 17.0391 3.08242 16.9358 3.1857C16.8325 3.28897 16.7745 3.42904 16.7745 3.5751C16.7745 3.72115 16.8325 3.86122 16.9358 3.9645L17.9225 4.9501H16.2252C15.8279 4.9501 15.4346 5.02834 15.0676 5.18036C14.7006 5.33238 14.3671 5.5552 14.0862 5.8361C13.8053 6.117 13.5825 6.45047 13.4305 6.81748C13.2784 7.18449 13.2002 7.57785 13.2002 7.9751V8.2501C13.2002 8.39597 13.2581 8.53586 13.3613 8.63901C13.4644 8.74215 13.6043 8.8001 13.7502 8.8001C13.8961 8.8001 14.036 8.74215 14.1391 8.63901C14.2422 8.53586 14.3002 8.39597 14.3002 8.2501V7.9751C14.3002 6.9125 15.1626 6.0501 16.2252 6.0501H17.9225L16.9358 7.0357C16.8325 7.13897 16.7745 7.27905 16.7745 7.4251C16.7745 7.57115 16.8325 7.71122 16.9358 7.8145C17.0391 7.91777 17.1791 7.97579 17.3252 7.97579C17.4712 7.97579 17.6113 7.91777 17.7146 7.8145L19.6418 5.8862C19.7439 5.78286 19.801 5.6433 19.8006 5.49799C19.8002 5.35269 19.7423 5.21346 19.6396 5.1107L17.7146 3.1857ZM4.4002 3.3001H10.5602C10.1105 4.18101 9.88365 5.15873 9.89948 6.14765C9.91531 7.13657 10.1733 8.10653 10.651 8.97259C11.1286 9.83865 11.8113 10.5744 12.6393 11.1154C13.4673 11.6564 14.4152 11.9862 15.4002 12.0759V12.1001C15.4002 12.6836 15.1684 13.2432 14.7558 13.6557C14.3432 14.0683 13.7837 14.3001 13.2002 14.3001H4.4002C3.81672 14.3001 3.25714 14.0683 2.84456 13.6557C2.43198 13.2432 2.2002 12.6836 2.2002 12.1001V5.5001C2.2002 4.91662 2.43198 4.35704 2.84456 3.94446C3.25714 3.53188 3.81672 3.3001 4.4002 3.3001ZM16.5002 12.0759C16.8724 12.0423 17.2406 11.9741 17.6002 11.8724V12.1001C17.6002 13.2671 17.1366 14.3862 16.3115 15.2114C15.4863 16.0365 14.3671 16.5001 13.2002 16.5001H6.60019C6.21402 16.5001 5.83466 16.3984 5.50023 16.2053C5.16579 16.0123 4.88808 15.7345 4.695 15.4001H13.2002C14.0754 15.4001 14.9148 15.0524 15.5336 14.4336C16.1525 13.8147 16.5002 12.9753 16.5002 12.1001V12.0759ZM19.8002 10.7174C19.4609 10.9975 19.092 11.2399 18.7002 11.4401V12.1001C18.7002 13.5588 18.1207 14.9577 17.0893 15.9892C16.0578 17.0206 14.6589 17.6001 13.2002 17.6001H6.895C7.08808 17.9345 7.36579 18.2123 7.70023 18.4053C8.03466 18.5984 8.41402 18.7001 8.80019 18.7001H13.2002C14.9506 18.7001 16.6294 18.0047 17.8671 16.767C19.1048 15.5293 19.8002 13.8505 19.8002 12.1001V10.7174Z" fill="white"/>
</svg>
